<mxfile host="app.diagrams.net" modified="2023-06-09T22:00:49.386Z" agent="Mozilla/5.0 (Windows NT 10.0; Win64; x64) AppleWebKit/537.36 (KHTML, like Gecko) Chrome/114.0.0.0 Safari/537.36" etag="pd4HiJ8FCRIPECgUeC9g" version="21.3.8" type="device">
  <diagram id="lY2L8Dqwt6Sw2qWBHbSJ" name="Page-1">
    <mxGraphModel dx="2501" dy="774" grid="1" gridSize="10" guides="1" tooltips="1" connect="1" arrows="1" fold="1" page="1" pageScale="1" pageWidth="827" pageHeight="1169" math="0" shadow="0">
      <root>
        <mxCell id="0" />
        <mxCell id="1" parent="0" />
        <mxCell id="mlQpVhgk6LICcNn3Okiw-5" value="" style="rounded=1;whiteSpace=wrap;html=1;strokeColor=#3333FF;fillColor=none;" parent="1" vertex="1">
          <mxGeometry x="-291.75" y="421" width="594" height="375.5" as="geometry" />
        </mxCell>
        <mxCell id="mlQpVhgk6LICcNn3Okiw-9" value="" style="rounded=1;whiteSpace=wrap;html=1;strokeColor=#FF3333;fillColor=none;" parent="1" vertex="1">
          <mxGeometry x="-291.25" y="959" width="591.5" height="233.5" as="geometry" />
        </mxCell>
        <mxCell id="mlQpVhgk6LICcNn3Okiw-8" value="" style="rounded=1;whiteSpace=wrap;html=1;strokeColor=#FF8000;fillColor=none;" parent="1" vertex="1">
          <mxGeometry x="-151.28" y="1192.5" width="302.56" height="276.5" as="geometry" />
        </mxCell>
        <mxCell id="mlQpVhgk6LICcNn3Okiw-1" value="&amp;nbsp; &amp;nbsp;" style="rounded=1;whiteSpace=wrap;html=1;strokeColor=#32F032;fillColor=none;" parent="1" vertex="1">
          <mxGeometry x="-291.75" y="6" width="591.5" height="280" as="geometry" />
        </mxCell>
        <mxCell id="mlQpVhgk6LICcNn3Okiw-2" value="" style="rounded=1;whiteSpace=wrap;html=1;strokeColor=#FF8000;fillColor=#FFFFFF;" parent="1" vertex="1">
          <mxGeometry x="-102.56" y="170" width="223.12" height="253" as="geometry" />
        </mxCell>
        <mxCell id="CsPThCFBbrG695YboE_L-19" style="edgeStyle=orthogonalEdgeStyle;rounded=0;orthogonalLoop=1;jettySize=auto;html=1;exitX=0.5;exitY=1;exitDx=0;exitDy=0;entryX=0;entryY=0.5;entryDx=0;entryDy=0;" parent="1" source="CsPThCFBbrG695YboE_L-2" target="CsPThCFBbrG695YboE_L-11" edge="1">
          <mxGeometry relative="1" as="geometry" />
        </mxCell>
        <mxCell id="CsPThCFBbrG695YboE_L-2" value="Archivo mp4" style="rounded=1;whiteSpace=wrap;html=1;" parent="1" vertex="1">
          <mxGeometry x="-230" y="110" width="80" height="30" as="geometry" />
        </mxCell>
        <mxCell id="CsPThCFBbrG695YboE_L-7" style="edgeStyle=orthogonalEdgeStyle;rounded=0;orthogonalLoop=1;jettySize=auto;html=1;exitX=0;exitY=0.5;exitDx=0;exitDy=0;entryX=1;entryY=0.5;entryDx=0;entryDy=0;" parent="1" source="CsPThCFBbrG695YboE_L-3" target="CsPThCFBbrG695YboE_L-2" edge="1">
          <mxGeometry relative="1" as="geometry" />
        </mxCell>
        <mxCell id="CsPThCFBbrG695YboE_L-3" value="Link Youtube" style="rounded=1;whiteSpace=wrap;html=1;" parent="1" vertex="1">
          <mxGeometry x="144" y="110" width="80" height="30" as="geometry" />
        </mxCell>
        <mxCell id="CsPThCFBbrG695YboE_L-5" style="edgeStyle=orthogonalEdgeStyle;rounded=0;orthogonalLoop=1;jettySize=auto;html=1;exitX=0;exitY=0.5;exitDx=0;exitDy=0;entryX=0.5;entryY=0;entryDx=0;entryDy=0;" parent="1" target="CsPThCFBbrG695YboE_L-2" edge="1">
          <mxGeometry relative="1" as="geometry">
            <mxPoint x="-49" y="50" as="sourcePoint" />
          </mxGeometry>
        </mxCell>
        <mxCell id="CsPThCFBbrG695YboE_L-6" style="edgeStyle=orthogonalEdgeStyle;rounded=0;orthogonalLoop=1;jettySize=auto;html=1;exitX=1;exitY=0.5;exitDx=0;exitDy=0;entryX=0.5;entryY=0;entryDx=0;entryDy=0;" parent="1" source="CsPThCFBbrG695YboE_L-4" target="CsPThCFBbrG695YboE_L-3" edge="1">
          <mxGeometry relative="1" as="geometry" />
        </mxCell>
        <mxCell id="CsPThCFBbrG695YboE_L-4" value="Usuario" style="ellipse;whiteSpace=wrap;html=1;" parent="1" vertex="1">
          <mxGeometry x="-46" y="30" width="100" height="40" as="geometry" />
        </mxCell>
        <mxCell id="CsPThCFBbrG695YboE_L-8" value="Descarga" style="text;html=1;align=center;verticalAlign=middle;resizable=0;points=[];autosize=1;strokeColor=none;fillColor=none;" parent="1" vertex="1">
          <mxGeometry x="-31" y="125" width="70" height="30" as="geometry" />
        </mxCell>
        <mxCell id="CsPThCFBbrG695YboE_L-9" value="Recibe &lt;br&gt;input" style="text;html=1;align=center;verticalAlign=middle;resizable=0;points=[];autosize=1;strokeColor=none;fillColor=none;" parent="1" vertex="1">
          <mxGeometry x="-244" y="50" width="60" height="40" as="geometry" />
        </mxCell>
        <mxCell id="CsPThCFBbrG695YboE_L-10" value="Recibe&lt;br style=&quot;border-color: var(--border-color);&quot;&gt;input" style="text;html=1;align=center;verticalAlign=middle;resizable=0;points=[];autosize=1;strokeColor=none;fillColor=none;" parent="1" vertex="1">
          <mxGeometry x="180" y="50" width="60" height="40" as="geometry" />
        </mxCell>
        <mxCell id="CsPThCFBbrG695YboE_L-11" value="Frames" style="rounded=0;whiteSpace=wrap;html=1;" parent="1" vertex="1">
          <mxGeometry x="-41.5" y="190" width="61" height="50" as="geometry" />
        </mxCell>
        <mxCell id="CsPThCFBbrG695YboE_L-16" value="Frames" style="rounded=0;whiteSpace=wrap;html=1;" parent="1" vertex="1">
          <mxGeometry x="-31.5" y="200" width="61" height="50" as="geometry" />
        </mxCell>
        <mxCell id="CsPThCFBbrG695YboE_L-17" value="Frames" style="rounded=0;whiteSpace=wrap;html=1;" parent="1" vertex="1">
          <mxGeometry x="-21.5" y="210" width="61" height="50" as="geometry" />
        </mxCell>
        <mxCell id="CsPThCFBbrG695YboE_L-27" style="edgeStyle=orthogonalEdgeStyle;rounded=0;orthogonalLoop=1;jettySize=auto;html=1;exitX=0.25;exitY=1;exitDx=0;exitDy=0;entryX=0.656;entryY=-0.02;entryDx=0;entryDy=0;entryPerimeter=0;" parent="1" source="CsPThCFBbrG695YboE_L-18" target="CsPThCFBbrG695YboE_L-22" edge="1">
          <mxGeometry relative="1" as="geometry" />
        </mxCell>
        <mxCell id="CsPThCFBbrG695YboE_L-18" value="Frames" style="rounded=0;whiteSpace=wrap;html=1;" parent="1" vertex="1">
          <mxGeometry x="-11.5" y="220" width="61" height="50" as="geometry" />
        </mxCell>
        <mxCell id="CsPThCFBbrG695YboE_L-20" value="Extrae y &lt;br&gt;ajusta tamaÃ±o" style="text;html=1;align=center;verticalAlign=middle;resizable=0;points=[];autosize=1;strokeColor=none;fillColor=none;" parent="1" vertex="1">
          <mxGeometry x="-267" y="200" width="100" height="40" as="geometry" />
        </mxCell>
        <mxCell id="CsPThCFBbrG695YboE_L-22" value="Frames" style="rounded=0;whiteSpace=wrap;html=1;" parent="1" vertex="1">
          <mxGeometry x="-36.5" y="343" width="61" height="50" as="geometry" />
        </mxCell>
        <mxCell id="CsPThCFBbrG695YboE_L-23" value="Frames" style="rounded=0;whiteSpace=wrap;html=1;" parent="1" vertex="1">
          <mxGeometry x="-26.5" y="353" width="61" height="50" as="geometry" />
        </mxCell>
        <mxCell id="CsPThCFBbrG695YboE_L-49" style="edgeStyle=orthogonalEdgeStyle;rounded=0;orthogonalLoop=1;jettySize=auto;html=1;exitX=0.5;exitY=1;exitDx=0;exitDy=0;entryX=0.1;entryY=0.5;entryDx=0;entryDy=0;entryPerimeter=0;" parent="1" source="CsPThCFBbrG695YboE_L-24" target="CsPThCFBbrG695YboE_L-48" edge="1">
          <mxGeometry relative="1" as="geometry" />
        </mxCell>
        <mxCell id="CsPThCFBbrG695YboE_L-24" value="Frames" style="rounded=0;whiteSpace=wrap;html=1;" parent="1" vertex="1">
          <mxGeometry x="-16.5" y="363" width="61" height="50" as="geometry" />
        </mxCell>
        <mxCell id="CsPThCFBbrG695YboE_L-28" value="Limpia por calidad &lt;br&gt;de imagen" style="text;html=1;align=center;verticalAlign=middle;resizable=0;points=[];autosize=1;strokeColor=none;fillColor=none;" parent="1" vertex="1">
          <mxGeometry x="0.56" y="286" width="120" height="40" as="geometry" />
        </mxCell>
        <mxCell id="CsPThCFBbrG695YboE_L-36" value="Slide 1&lt;br&gt;&lt;br&gt;&lt;br&gt;&lt;br&gt;&lt;br&gt;" style="shape=parallelogram;perimeter=parallelogramPerimeter;whiteSpace=wrap;html=1;fixedSize=1;" parent="1" vertex="1">
          <mxGeometry x="-211" y="511" width="150" height="80" as="geometry" />
        </mxCell>
        <mxCell id="CsPThCFBbrG695YboE_L-37" value="Frame" style="rounded=0;whiteSpace=wrap;html=1;" parent="1" vertex="1">
          <mxGeometry x="-191" y="536" width="61" height="50" as="geometry" />
        </mxCell>
        <mxCell id="CsPThCFBbrG695YboE_L-38" value="&lt;span&gt;Slide 2&lt;br&gt;&lt;br&gt;&lt;br&gt;&lt;br&gt;&lt;br&gt;&lt;/span&gt;" style="shape=parallelogram;perimeter=parallelogramPerimeter;whiteSpace=wrap;html=1;fixedSize=1;" parent="1" vertex="1">
          <mxGeometry x="-72" y="511" width="150" height="80" as="geometry" />
        </mxCell>
        <mxCell id="CsPThCFBbrG695YboE_L-39" value="&lt;span&gt;Slide 3&lt;br&gt;&lt;/span&gt;&lt;br&gt;~&lt;br&gt;&lt;br&gt;&lt;br&gt;" style="shape=parallelogram;perimeter=parallelogramPerimeter;whiteSpace=wrap;html=1;fixedSize=1;" parent="1" vertex="1">
          <mxGeometry x="69" y="511" width="150" height="80" as="geometry" />
        </mxCell>
        <mxCell id="CsPThCFBbrG695YboE_L-40" value="Frame" style="rounded=0;whiteSpace=wrap;html=1;" parent="1" vertex="1">
          <mxGeometry x="-176.5" y="536" width="61" height="50" as="geometry" />
        </mxCell>
        <mxCell id="CsPThCFBbrG695YboE_L-41" value="Frame" style="rounded=0;whiteSpace=wrap;html=1;" parent="1" vertex="1">
          <mxGeometry x="-162" y="536" width="61" height="50" as="geometry" />
        </mxCell>
        <mxCell id="CsPThCFBbrG695YboE_L-42" value="Frame" style="rounded=0;whiteSpace=wrap;html=1;" parent="1" vertex="1">
          <mxGeometry x="-47" y="536" width="61" height="50" as="geometry" />
        </mxCell>
        <mxCell id="CsPThCFBbrG695YboE_L-43" value="Frame" style="rounded=0;whiteSpace=wrap;html=1;" parent="1" vertex="1">
          <mxGeometry x="-32.5" y="536" width="61" height="50" as="geometry" />
        </mxCell>
        <mxCell id="CsPThCFBbrG695YboE_L-44" value="Frame" style="rounded=0;whiteSpace=wrap;html=1;" parent="1" vertex="1">
          <mxGeometry x="-17.5" y="536" width="61" height="50" as="geometry" />
        </mxCell>
        <mxCell id="CsPThCFBbrG695YboE_L-45" value="&lt;br&gt;" style="rounded=0;whiteSpace=wrap;html=1;" parent="1" vertex="1">
          <mxGeometry x="97.5" y="536" width="61" height="50" as="geometry" />
        </mxCell>
        <mxCell id="CsPThCFBbrG695YboE_L-46" value="" style="rounded=0;whiteSpace=wrap;html=1;" parent="1" vertex="1">
          <mxGeometry x="113.5" y="536" width="61" height="50" as="geometry" />
        </mxCell>
        <mxCell id="CsPThCFBbrG695YboE_L-47" value="Frame" style="rounded=0;whiteSpace=wrap;html=1;" parent="1" vertex="1">
          <mxGeometry x="129" y="536" width="61" height="50" as="geometry" />
        </mxCell>
        <mxCell id="CsPThCFBbrG695YboE_L-48" value="" style="shape=curlyBracket;whiteSpace=wrap;html=1;rounded=1;rotation=90;" parent="1" vertex="1">
          <mxGeometry x="8.5" y="286" width="10" height="420" as="geometry" />
        </mxCell>
        <mxCell id="CsPThCFBbrG695YboE_L-50" value="Divide en &lt;br&gt;diapositivas &lt;br&gt;( conjuntos de frames )" style="text;html=1;align=center;verticalAlign=middle;resizable=0;points=[];autosize=1;strokeColor=none;fillColor=none;" parent="1" vertex="1">
          <mxGeometry x="4.5" y="421" width="150" height="60" as="geometry" />
        </mxCell>
        <mxCell id="CsPThCFBbrG695YboE_L-52" value="Slide 1&lt;br&gt;&lt;br&gt;&lt;br&gt;&lt;br&gt;&lt;br&gt;" style="shape=parallelogram;perimeter=parallelogramPerimeter;whiteSpace=wrap;html=1;fixedSize=1;" parent="1" vertex="1">
          <mxGeometry x="-216" y="690" width="150" height="80" as="geometry" />
        </mxCell>
        <mxCell id="CsPThCFBbrG695YboE_L-54" value="&lt;span&gt;Slide 2&lt;br&gt;&lt;br&gt;&lt;br&gt;&lt;br&gt;&lt;br&gt;&lt;/span&gt;" style="shape=parallelogram;perimeter=parallelogramPerimeter;whiteSpace=wrap;html=1;fixedSize=1;" parent="1" vertex="1">
          <mxGeometry x="-77" y="690" width="150" height="80" as="geometry" />
        </mxCell>
        <mxCell id="CsPThCFBbrG695YboE_L-55" value="&lt;span&gt;Slide 3&lt;br&gt;&lt;/span&gt;&lt;br&gt;~&lt;br&gt;&lt;br&gt;&lt;br&gt;" style="shape=parallelogram;perimeter=parallelogramPerimeter;whiteSpace=wrap;html=1;fixedSize=1;" parent="1" vertex="1">
          <mxGeometry x="64" y="690" width="150" height="80" as="geometry" />
        </mxCell>
        <mxCell id="CsPThCFBbrG695YboE_L-56" value="Frame" style="rounded=0;whiteSpace=wrap;html=1;" parent="1" vertex="1">
          <mxGeometry x="-181.5" y="715" width="61" height="50" as="geometry" />
        </mxCell>
        <mxCell id="CsPThCFBbrG695YboE_L-57" value="Frame" style="rounded=0;whiteSpace=wrap;html=1;" parent="1" vertex="1">
          <mxGeometry x="-167" y="715" width="61" height="50" as="geometry" />
        </mxCell>
        <mxCell id="CsPThCFBbrG695YboE_L-60" value="Frame" style="rounded=0;whiteSpace=wrap;html=1;" parent="1" vertex="1">
          <mxGeometry x="-22.5" y="715" width="61" height="50" as="geometry" />
        </mxCell>
        <mxCell id="CsPThCFBbrG695YboE_L-61" value="&lt;br&gt;" style="rounded=0;whiteSpace=wrap;html=1;" parent="1" vertex="1">
          <mxGeometry x="92.5" y="715" width="61" height="50" as="geometry" />
        </mxCell>
        <mxCell id="CsPThCFBbrG695YboE_L-62" value="" style="rounded=0;whiteSpace=wrap;html=1;" parent="1" vertex="1">
          <mxGeometry x="108.5" y="715" width="61" height="50" as="geometry" />
        </mxCell>
        <mxCell id="CsPThCFBbrG695YboE_L-63" value="Frame" style="rounded=0;whiteSpace=wrap;html=1;" parent="1" vertex="1">
          <mxGeometry x="124" y="715" width="61" height="50" as="geometry" />
        </mxCell>
        <mxCell id="CsPThCFBbrG695YboE_L-64" value="" style="shape=curlyBracket;whiteSpace=wrap;html=1;rounded=1;rotation=90;" parent="1" vertex="1">
          <mxGeometry x="-1" y="467" width="10" height="420" as="geometry" />
        </mxCell>
        <mxCell id="CsPThCFBbrG695YboE_L-67" style="edgeStyle=orthogonalEdgeStyle;rounded=0;orthogonalLoop=1;jettySize=auto;html=1;exitX=0.1;exitY=0.5;exitDx=0;exitDy=0;exitPerimeter=0;entryX=0.1;entryY=0.5;entryDx=0;entryDy=0;entryPerimeter=0;" parent="1" source="CsPThCFBbrG695YboE_L-65" target="CsPThCFBbrG695YboE_L-64" edge="1">
          <mxGeometry relative="1" as="geometry" />
        </mxCell>
        <mxCell id="CsPThCFBbrG695YboE_L-65" value="" style="shape=curlyBracket;whiteSpace=wrap;html=1;rounded=1;rotation=-90;" parent="1" vertex="1">
          <mxGeometry x="-1" y="395" width="10" height="420" as="geometry" />
        </mxCell>
        <mxCell id="CsPThCFBbrG695YboE_L-71" value="&lt;span style=&quot;color: rgba(0 , 0 , 0 , 0) ; font-family: monospace ; font-size: 0px&quot;&gt;%3CmxGraphModel%3E%3Croot%3E%3CmxCell%20id%3D%220%22%2F%3E%3CmxCell%20id%3D%221%22%20parent%3D%220%22%2F%3E%3CmxCell%20id%3D%222%22%20value%3D%22filtrar%22%20style%3D%22text%3Bhtml%3D1%3Balign%3Dcenter%3BverticalAlign%3Dmiddle%3Bresizable%3D0%3Bpoints%3D%5B%5D%3Bautosize%3D1%3BstrokeColor%3Dnone%3BfillColor%3Dnone%3B%22%20vertex%3D%221%22%20parent%3D%221%22%3E%3CmxGeometry%20x%3D%22414.5%22%20y%3D%22290%22%20width%3D%2240%22%20height%3D%2220%22%20as%3D%22geometry%22%2F%3E%3C%2FmxCell%3E%3C%2Froot%3E%3C%2FmxGraphModel%3E&lt;/span&gt;" style="text;html=1;align=center;verticalAlign=middle;resizable=0;points=[];autosize=1;strokeColor=none;fillColor=none;" parent="1" vertex="1">
          <mxGeometry x="30" y="630" width="20" height="20" as="geometry" />
        </mxCell>
        <mxCell id="CsPThCFBbrG695YboE_L-72" value="Selecciona frame &lt;br&gt;por diapositiva" style="text;html=1;align=center;verticalAlign=middle;resizable=0;points=[];autosize=1;strokeColor=none;fillColor=none;" parent="1" vertex="1">
          <mxGeometry x="4" y="620" width="120" height="40" as="geometry" />
        </mxCell>
        <mxCell id="wviz0eGP6kA1A7Y7JCNt-14" style="edgeStyle=orthogonalEdgeStyle;rounded=0;orthogonalLoop=1;jettySize=auto;html=1;exitX=0.1;exitY=0.5;exitDx=0;exitDy=0;exitPerimeter=0;entryX=0.1;entryY=0.5;entryDx=0;entryDy=0;entryPerimeter=0;" edge="1" parent="1" source="CsPThCFBbrG695YboE_L-73" target="wviz0eGP6kA1A7Y7JCNt-13">
          <mxGeometry relative="1" as="geometry" />
        </mxCell>
        <mxCell id="CsPThCFBbrG695YboE_L-73" value="" style="shape=curlyBracket;whiteSpace=wrap;html=1;rounded=1;rotation=-90;" parent="1" vertex="1">
          <mxGeometry x="-5.5" y="573" width="10" height="420" as="geometry" />
        </mxCell>
        <mxCell id="CsPThCFBbrG695YboE_L-74" value="Slide1" style="whiteSpace=wrap;html=1;shape=mxgraph.basic.document" parent="1" vertex="1">
          <mxGeometry x="-122.5" y="1032.5" width="51" height="80" as="geometry" />
        </mxCell>
        <mxCell id="CsPThCFBbrG695YboE_L-75" value="Slide2" style="whiteSpace=wrap;html=1;shape=mxgraph.basic.document" parent="1" vertex="1">
          <mxGeometry x="-21.5" y="1032.5" width="51" height="80" as="geometry" />
        </mxCell>
        <mxCell id="CsPThCFBbrG695YboE_L-76" value="Slide3" style="whiteSpace=wrap;html=1;shape=mxgraph.basic.document" parent="1" vertex="1">
          <mxGeometry x="73.5" y="1032.5" width="51" height="80" as="geometry" />
        </mxCell>
        <mxCell id="CsPThCFBbrG695YboE_L-77" value="" style="shape=curlyBracket;whiteSpace=wrap;html=1;rounded=1;rotation=90;" parent="1" vertex="1">
          <mxGeometry x="-6.5" y="860" width="10" height="325" as="geometry" />
        </mxCell>
        <mxCell id="CsPThCFBbrG695YboE_L-79" value="Transcribe" style="text;html=1;align=center;verticalAlign=middle;resizable=0;points=[];autosize=1;strokeColor=none;fillColor=none;" parent="1" vertex="1">
          <mxGeometry x="-1.5" y="967.5" width="80" height="30" as="geometry" />
        </mxCell>
        <mxCell id="CsPThCFBbrG695YboE_L-83" style="edgeStyle=orthogonalEdgeStyle;rounded=0;orthogonalLoop=1;jettySize=auto;html=1;exitX=0.1;exitY=0.5;exitDx=0;exitDy=0;exitPerimeter=0;entryX=0.5;entryY=0;entryDx=0;entryDy=0;entryPerimeter=0;" parent="1" source="CsPThCFBbrG695YboE_L-80" target="CsPThCFBbrG695YboE_L-87" edge="1">
          <mxGeometry relative="1" as="geometry">
            <mxPoint x="-0.5" y="1202.5" as="targetPoint" />
          </mxGeometry>
        </mxCell>
        <mxCell id="CsPThCFBbrG695YboE_L-80" value="" style="shape=curlyBracket;whiteSpace=wrap;html=1;rounded=1;rotation=-90;" parent="1" vertex="1">
          <mxGeometry x="-5.5" y="962.5" width="10" height="330" as="geometry" />
        </mxCell>
        <mxCell id="CsPThCFBbrG695YboE_L-84" value="Limpia segÃºn &lt;br&gt;redundancias &lt;br&gt;en texto" style="text;html=1;align=center;verticalAlign=middle;resizable=0;points=[];autosize=1;strokeColor=none;fillColor=none;" parent="1" vertex="1">
          <mxGeometry x="4.5" y="1292.5" width="100" height="60" as="geometry" />
        </mxCell>
        <mxCell id="CsPThCFBbrG695YboE_L-90" style="edgeStyle=orthogonalEdgeStyle;rounded=0;orthogonalLoop=1;jettySize=auto;html=1;exitX=0.5;exitY=1;exitDx=0;exitDy=0;exitPerimeter=0;" parent="1" source="CsPThCFBbrG695YboE_L-87" target="CsPThCFBbrG695YboE_L-89" edge="1">
          <mxGeometry relative="1" as="geometry" />
        </mxCell>
        <mxCell id="CsPThCFBbrG695YboE_L-87" value="TranscripciÃ³n&lt;br&gt;estructurada" style="whiteSpace=wrap;html=1;shape=mxgraph.basic.document" parent="1" vertex="1">
          <mxGeometry x="-83.5" y="1212.5" width="167" height="70" as="geometry" />
        </mxCell>
        <mxCell id="CsPThCFBbrG695YboE_L-88" value="Estructura y&lt;br&gt;lematiza" style="text;html=1;align=center;verticalAlign=middle;resizable=0;points=[];autosize=1;strokeColor=none;fillColor=none;" parent="1" vertex="1">
          <mxGeometry x="0.5" y="1137.5" width="90" height="40" as="geometry" />
        </mxCell>
        <mxCell id="CsPThCFBbrG695YboE_L-89" value="TranscripciÃ³n&lt;br&gt;estructurada" style="whiteSpace=wrap;html=1;shape=mxgraph.basic.document" parent="1" vertex="1">
          <mxGeometry x="-84" y="1372.5" width="167" height="70" as="geometry" />
        </mxCell>
        <mxCell id="CsPThCFBbrG695YboE_L-92" value="" style="endArrow=none;dashed=1;html=1;dashPattern=1 3;strokeWidth=2;rounded=0;" parent="1" edge="1">
          <mxGeometry width="50" height="50" relative="1" as="geometry">
            <mxPoint x="-32" y="1382.5" as="sourcePoint" />
            <mxPoint x="38" y="1382.5" as="targetPoint" />
          </mxGeometry>
        </mxCell>
        <mxCell id="CsPThCFBbrG695YboE_L-93" value="" style="endArrow=none;dashed=1;html=1;dashPattern=1 3;strokeWidth=2;rounded=0;" parent="1" edge="1">
          <mxGeometry width="50" height="50" relative="1" as="geometry">
            <mxPoint x="-30.5" y="1432.5" as="sourcePoint" />
            <mxPoint x="39.5" y="1432.5" as="targetPoint" />
          </mxGeometry>
        </mxCell>
        <mxCell id="RO1w3Dlw9neQbP7xLVaE-4" value="" style="verticalLabelPosition=bottom;verticalAlign=top;html=1;shape=mxgraph.basic.tick;fillColor=#1FFF1F;strokeColor=#0FFF1F;" parent="1" vertex="1">
          <mxGeometry x="-562" y="694.5" width="30" height="30" as="geometry" />
        </mxCell>
        <mxCell id="nCp5nltPQEopbxxUBhLR-5" value="&lt;font style=&quot;font-size: 18px;&quot;&gt;LISTO&lt;/font&gt;" style="text;html=1;align=center;verticalAlign=middle;resizable=0;points=[];autosize=1;strokeColor=none;fillColor=none;" parent="1" vertex="1">
          <mxGeometry x="-524" y="699.5" width="70" height="20" as="geometry" />
        </mxCell>
        <mxCell id="nCp5nltPQEopbxxUBhLR-6" value="" style="verticalLabelPosition=bottom;verticalAlign=top;html=1;shape=mxgraph.basic.star;fillColor=#F9FF40;" parent="1" vertex="1">
          <mxGeometry x="-570" y="629.5" width="46" height="46" as="geometry" />
        </mxCell>
        <mxCell id="nCp5nltPQEopbxxUBhLR-7" value="&lt;div style=&quot;text-align: center;&quot;&gt;Pendiente&lt;/div&gt;" style="text;whiteSpace=wrap;html=1;fontSize=18;" parent="1" vertex="1">
          <mxGeometry x="-512" y="637" width="80" height="40" as="geometry" />
        </mxCell>
        <mxCell id="YDrbyTfyRsVqhVEIsotK-3" value="" style="verticalLabelPosition=bottom;verticalAlign=top;html=1;shape=mxgraph.basic.star;fillColor=#F9FF40;" parent="1" vertex="1">
          <mxGeometry x="414" y="969" width="46" height="46" as="geometry" />
        </mxCell>
        <mxCell id="YDrbyTfyRsVqhVEIsotK-6" value="&lt;b style=&quot;color: rgb(0, 0, 0); font-family: Helvetica; font-size: 12px; font-style: normal; font-variant-ligatures: normal; font-variant-caps: normal; letter-spacing: normal; orphans: 2; text-align: center; text-indent: 0px; text-transform: none; widows: 2; word-spacing: 0px; -webkit-text-stroke-width: 0px; background-color: rgb(248, 249, 250); text-decoration-thickness: initial; text-decoration-style: initial; text-decoration-color: initial;&quot;&gt;&lt;b&gt;Listo:&lt;br&gt;- Se lematizo&lt;br&gt;- Se ordeno segun forma de lectura occidental&lt;br&gt;Falta:&lt;br&gt;- Se le puede agregar mayor insight a la estructura:&lt;br&gt;- resumen de cada texto (con nouns y verbs)&lt;br&gt;- Quizas extraer los textos no relacionados a la idea general&lt;br&gt;&lt;/b&gt;&lt;/b&gt;" style="text;whiteSpace=wrap;html=1;" parent="1" vertex="1">
          <mxGeometry x="390" y="815" width="480" height="30" as="geometry" />
        </mxCell>
        <mxCell id="YDrbyTfyRsVqhVEIsotK-8" value="&lt;b style=&quot;color: rgb(0, 0, 0); font-family: Helvetica; font-size: 12px; font-style: normal; font-variant-ligatures: normal; font-variant-caps: normal; letter-spacing: normal; orphans: 2; text-align: center; text-indent: 0px; text-transform: none; widows: 2; word-spacing: 0px; -webkit-text-stroke-width: 0px; background-color: rgb(248, 249, 250); text-decoration-thickness: initial; text-decoration-style: initial; text-decoration-color: initial;&quot;&gt;Listo:&lt;br&gt;&lt;/b&gt;&lt;b style=&quot;color: rgb(0, 0, 0); font-family: Helvetica; font-size: 12px; font-style: normal; font-variant-ligatures: normal; font-variant-caps: normal; letter-spacing: normal; orphans: 2; text-align: center; text-indent: 0px; text-transform: none; widows: 2; word-spacing: 0px; -webkit-text-stroke-width: 0px; background-color: rgb(248, 249, 250); text-decoration-thickness: initial; text-decoration-style: initial; text-decoration-color: initial;&quot;&gt;- Unir&amp;nbsp;&lt;b&gt;&lt;br&gt;- comparar textos de diferentes slides y eliminar redundancia&lt;br&gt;&lt;/b&gt;&lt;/b&gt;" style="text;whiteSpace=wrap;html=1;" parent="1" vertex="1">
          <mxGeometry x="404" y="1340" width="416" height="60" as="geometry" />
        </mxCell>
        <mxCell id="YDrbyTfyRsVqhVEIsotK-9" value="&lt;b style=&quot;color: rgb(0, 0, 0); font-family: Helvetica; font-size: 12px; font-style: normal; font-variant-ligatures: normal; font-variant-caps: normal; letter-spacing: normal; orphans: 2; text-indent: 0px; text-transform: none; widows: 2; word-spacing: 0px; -webkit-text-stroke-width: 0px; text-decoration-thickness: initial; text-decoration-style: initial; text-decoration-color: initial; text-align: center; background-color: rgb(248, 249, 250);&quot;&gt;&lt;b&gt;Falta:&lt;br&gt;- probar diferentes formas de eleccion de los frames de una misma slide&lt;br&gt;(actualmente se toma el ultimo de cada slide, se asume que se muestra mas informaciÃ³n al final)&lt;br&gt;&lt;/b&gt;&lt;/b&gt;" style="text;whiteSpace=wrap;html=1;" parent="1" vertex="1">
          <mxGeometry x="331" y="605" width="340" height="70" as="geometry" />
        </mxCell>
        <mxCell id="SiWx3s5bJbi6HsYl3i68-2" style="edgeStyle=orthogonalEdgeStyle;rounded=0;orthogonalLoop=1;jettySize=auto;html=1;exitX=0.5;exitY=1;exitDx=0;exitDy=0;entryX=0.5;entryY=0;entryDx=0;entryDy=0;" parent="1" source="SiWx3s5bJbi6HsYl3i68-1" target="SiWx3s5bJbi6HsYl3i68-4" edge="1">
          <mxGeometry relative="1" as="geometry">
            <mxPoint x="840" y="100" as="targetPoint" />
          </mxGeometry>
        </mxCell>
        <mxCell id="SiWx3s5bJbi6HsYl3i68-1" value="Developer" style="ellipse;whiteSpace=wrap;html=1;" parent="1" vertex="1">
          <mxGeometry x="800" y="30" width="100" height="40" as="geometry" />
        </mxCell>
        <mxCell id="SiWx3s5bJbi6HsYl3i68-3" value="Crea clase ( desde file o link )&amp;nbsp;" style="text;html=1;align=center;verticalAlign=middle;resizable=0;points=[];autosize=1;strokeColor=none;fillColor=none;" parent="1" vertex="1">
          <mxGeometry x="780" y="90" width="180" height="30" as="geometry" />
        </mxCell>
        <mxCell id="SiWx3s5bJbi6HsYl3i68-9" style="edgeStyle=orthogonalEdgeStyle;rounded=0;orthogonalLoop=1;jettySize=auto;html=1;exitX=0.5;exitY=1;exitDx=0;exitDy=0;entryX=0.5;entryY=0;entryDx=0;entryDy=0;" parent="1" source="SiWx3s5bJbi6HsYl3i68-4" target="SiWx3s5bJbi6HsYl3i68-10" edge="1">
          <mxGeometry relative="1" as="geometry">
            <mxPoint x="850" y="250" as="targetPoint" />
          </mxGeometry>
        </mxCell>
        <mxCell id="SiWx3s5bJbi6HsYl3i68-4" value="Video" style="rounded=1;whiteSpace=wrap;html=1;" parent="1" vertex="1">
          <mxGeometry x="810" y="150" width="80" height="30" as="geometry" />
        </mxCell>
        <mxCell id="SiWx3s5bJbi6HsYl3i68-7" value="&lt;div style=&quot;text-align: left;&quot;&gt;&lt;span style=&quot;background-color: initial;&quot;&gt;- Descarga video&lt;/span&gt;&lt;/div&gt;&lt;div style=&quot;text-align: left;&quot;&gt;&lt;span style=&quot;background-color: initial;&quot;&gt;- Obtiene frames&lt;/span&gt;&lt;/div&gt;" style="text;html=1;align=center;verticalAlign=middle;resizable=0;points=[];autosize=1;strokeColor=none;fillColor=none;" parent="1" vertex="1">
          <mxGeometry x="870" y="180" width="110" height="40" as="geometry" />
        </mxCell>
        <mxCell id="SiWx3s5bJbi6HsYl3i68-8" value="TODO&lt;br&gt;&lt;br&gt;Forma de mantener frames en tiempo de ejecucion&lt;br&gt;&lt;br&gt;Que parametros tomar para variar la limpieza de los frames&lt;br&gt;&lt;br&gt;" style="text;html=1;align=center;verticalAlign=middle;resizable=0;points=[];autosize=1;strokeColor=none;fillColor=none;" parent="1" vertex="1">
          <mxGeometry x="1090" y="15" width="340" height="100" as="geometry" />
        </mxCell>
        <mxCell id="SiWx3s5bJbi6HsYl3i68-17" style="edgeStyle=orthogonalEdgeStyle;rounded=0;orthogonalLoop=1;jettySize=auto;html=1;exitX=0;exitY=0.5;exitDx=0;exitDy=0;entryX=1;entryY=0.5;entryDx=0;entryDy=0;" parent="1" source="SiWx3s5bJbi6HsYl3i68-10" target="SiWx3s5bJbi6HsYl3i68-16" edge="1">
          <mxGeometry relative="1" as="geometry" />
        </mxCell>
        <mxCell id="SiWx3s5bJbi6HsYl3i68-23" style="edgeStyle=orthogonalEdgeStyle;rounded=0;orthogonalLoop=1;jettySize=auto;html=1;exitX=1;exitY=0.5;exitDx=0;exitDy=0;entryX=0;entryY=0.5;entryDx=0;entryDy=0;" parent="1" target="9p00Ootfzjpj4iNoHTeA-2" edge="1">
          <mxGeometry relative="1" as="geometry">
            <mxPoint x="870" y="265" as="sourcePoint" />
          </mxGeometry>
        </mxCell>
        <mxCell id="9p00Ootfzjpj4iNoHTeA-1" style="edgeStyle=orthogonalEdgeStyle;rounded=0;orthogonalLoop=1;jettySize=auto;html=1;exitX=0.5;exitY=1;exitDx=0;exitDy=0;entryX=0.5;entryY=0;entryDx=0;entryDy=0;" parent="1" source="SiWx3s5bJbi6HsYl3i68-10" target="SiWx3s5bJbi6HsYl3i68-19" edge="1">
          <mxGeometry relative="1" as="geometry" />
        </mxCell>
        <mxCell id="SiWx3s5bJbi6HsYl3i68-10" value="Frames" style="rounded=1;whiteSpace=wrap;html=1;" parent="1" vertex="1">
          <mxGeometry x="810" y="250" width="80" height="30" as="geometry" />
        </mxCell>
        <mxCell id="SiWx3s5bJbi6HsYl3i68-13" value="Filtra frames&lt;br&gt;Mejora calidad (?)" style="text;html=1;align=center;verticalAlign=middle;resizable=0;points=[];autosize=1;strokeColor=none;fillColor=none;" parent="1" vertex="1">
          <mxGeometry x="880" y="270" width="120" height="40" as="geometry" />
        </mxCell>
        <mxCell id="SiWx3s5bJbi6HsYl3i68-20" style="edgeStyle=orthogonalEdgeStyle;rounded=0;orthogonalLoop=1;jettySize=auto;html=1;exitX=0.5;exitY=1;exitDx=0;exitDy=0;entryX=0.25;entryY=0;entryDx=0;entryDy=0;" parent="1" source="SiWx3s5bJbi6HsYl3i68-16" target="SiWx3s5bJbi6HsYl3i68-19" edge="1">
          <mxGeometry relative="1" as="geometry">
            <Array as="points">
              <mxPoint x="711" y="410" />
              <mxPoint x="823" y="410" />
            </Array>
          </mxGeometry>
        </mxCell>
        <mxCell id="SiWx3s5bJbi6HsYl3i68-16" value="Diapositivas" style="rounded=1;whiteSpace=wrap;html=1;" parent="1" vertex="1">
          <mxGeometry x="671" y="250" width="80" height="30" as="geometry" />
        </mxCell>
        <mxCell id="SiWx3s5bJbi6HsYl3i68-18" value="Diferencia" style="text;html=1;align=center;verticalAlign=middle;resizable=0;points=[];autosize=1;strokeColor=none;fillColor=none;" parent="1" vertex="1">
          <mxGeometry x="740" y="270" width="80" height="30" as="geometry" />
        </mxCell>
        <mxCell id="SiWx3s5bJbi6HsYl3i68-25" style="edgeStyle=orthogonalEdgeStyle;rounded=0;orthogonalLoop=1;jettySize=auto;html=1;exitX=1;exitY=0.5;exitDx=0;exitDy=0;entryX=-0.008;entryY=0.567;entryDx=0;entryDy=0;entryPerimeter=0;" parent="1" source="SiWx3s5bJbi6HsYl3i68-19" target="SiWx3s5bJbi6HsYl3i68-24" edge="1">
          <mxGeometry relative="1" as="geometry" />
        </mxCell>
        <mxCell id="SiWx3s5bJbi6HsYl3i68-19" value="Transcripcion formateada" style="rounded=1;whiteSpace=wrap;html=1;" parent="1" vertex="1">
          <mxGeometry x="795" y="470" width="110" height="55" as="geometry" />
        </mxCell>
        <mxCell id="SiWx3s5bJbi6HsYl3i68-21" value="&lt;div style=&quot;text-align: left;&quot;&gt;&lt;span style=&quot;background-color: initial;&quot;&gt;- Transcribe&lt;/span&gt;&lt;/div&gt;&lt;div style=&quot;text-align: left;&quot;&gt;&lt;span style=&quot;background-color: initial;&quot;&gt;- Estructura&lt;/span&gt;&lt;/div&gt;" style="text;html=1;align=center;verticalAlign=middle;resizable=0;points=[];autosize=1;strokeColor=none;fillColor=none;" parent="1" vertex="1">
          <mxGeometry x="800" y="360" width="90" height="40" as="geometry" />
        </mxCell>
        <mxCell id="SiWx3s5bJbi6HsYl3i68-24" value="Elimina redudancia" style="text;html=1;align=center;verticalAlign=middle;resizable=0;points=[];autosize=1;strokeColor=none;fillColor=none;" parent="1" vertex="1">
          <mxGeometry x="980" y="481" width="130" height="30" as="geometry" />
        </mxCell>
        <mxCell id="SiWx3s5bJbi6HsYl3i68-26" value="Clases&amp;nbsp;&lt;br&gt;- Video&lt;br&gt;- Frames&lt;br&gt;- Diapositivas&lt;br&gt;- Transcripcion" style="whiteSpace=wrap;html=1;align=left;" parent="1" vertex="1">
          <mxGeometry x="1460" y="15" width="130" height="90" as="geometry" />
        </mxCell>
        <mxCell id="SiWx3s5bJbi6HsYl3i68-27" value="Video: se usa una sola vez (?)" style="whiteSpace=wrap;html=1;" parent="1" vertex="1">
          <mxGeometry x="1225" y="120" width="120" height="60" as="geometry" />
        </mxCell>
        <mxCell id="SiWx3s5bJbi6HsYl3i68-30" style="edgeStyle=orthogonalEdgeStyle;rounded=0;orthogonalLoop=1;jettySize=auto;html=1;exitX=1;exitY=0.5;exitDx=0;exitDy=0;entryX=0;entryY=0.5;entryDx=0;entryDy=0;" parent="1" source="SiWx3s5bJbi6HsYl3i68-28" target="SiWx3s5bJbi6HsYl3i68-29" edge="1">
          <mxGeometry relative="1" as="geometry" />
        </mxCell>
        <mxCell id="SiWx3s5bJbi6HsYl3i68-28" value="Frames:&amp;nbsp;&lt;br&gt;-Pueden estar en una ruta o en tiempo ejecucion&amp;nbsp;&lt;br&gt;- Carac: numero, dimensiones, fps, etc" style="whiteSpace=wrap;html=1;" parent="1" vertex="1">
          <mxGeometry x="1220" y="200" width="130" height="115" as="geometry" />
        </mxCell>
        <mxCell id="SiWx3s5bJbi6HsYl3i68-29" value="Diapos:&lt;br&gt;- Son frames agrupados&amp;nbsp;&lt;br&gt;- Tienen orden&amp;nbsp;" style="whiteSpace=wrap;html=1;" parent="1" vertex="1">
          <mxGeometry x="1400" y="227.5" width="120" height="60" as="geometry" />
        </mxCell>
        <mxCell id="SiWx3s5bJbi6HsYl3i68-31" value="Transcripcion:&lt;br&gt;tiene - posiciones (?)&lt;br&gt;- orden&amp;nbsp;&lt;br&gt;- tipo : (lematizada, normalizada, ambas )&lt;br&gt;" style="whiteSpace=wrap;html=1;" parent="1" vertex="1">
          <mxGeometry x="1225" y="336" width="125" height="99" as="geometry" />
        </mxCell>
        <mxCell id="9p00Ootfzjpj4iNoHTeA-3" style="edgeStyle=orthogonalEdgeStyle;rounded=0;orthogonalLoop=1;jettySize=auto;html=1;entryX=0.75;entryY=0;entryDx=0;entryDy=0;exitX=0.5;exitY=1;exitDx=0;exitDy=0;" parent="1" source="9p00Ootfzjpj4iNoHTeA-2" target="SiWx3s5bJbi6HsYl3i68-19" edge="1">
          <mxGeometry relative="1" as="geometry">
            <mxPoint x="1030" y="330" as="sourcePoint" />
            <Array as="points">
              <mxPoint x="1040" y="410" />
              <mxPoint x="878" y="410" />
            </Array>
          </mxGeometry>
        </mxCell>
        <mxCell id="9p00Ootfzjpj4iNoHTeA-2" value="Frames&amp;nbsp;" style="rounded=1;whiteSpace=wrap;html=1;" parent="1" vertex="1">
          <mxGeometry x="1000" y="250" width="80" height="30" as="geometry" />
        </mxCell>
        <mxCell id="F4NLr4YHbNImHq-yJi8L-4" value="" style="endArrow=none;dashed=1;html=1;dashPattern=1 3;strokeWidth=2;rounded=0;" parent="1" edge="1">
          <mxGeometry width="50" height="50" relative="1" as="geometry">
            <mxPoint x="-32" y="1222.5" as="sourcePoint" />
            <mxPoint x="38" y="1222.5" as="targetPoint" />
          </mxGeometry>
        </mxCell>
        <mxCell id="F4NLr4YHbNImHq-yJi8L-5" value="" style="endArrow=none;dashed=1;html=1;dashPattern=1 3;strokeWidth=2;rounded=0;" parent="1" edge="1">
          <mxGeometry width="50" height="50" relative="1" as="geometry">
            <mxPoint x="-36.5" y="1272.5" as="sourcePoint" />
            <mxPoint x="33.5" y="1272.5" as="targetPoint" />
          </mxGeometry>
        </mxCell>
        <mxCell id="mlQpVhgk6LICcNn3Okiw-3" value="&lt;b&gt;&lt;font color=&quot;#42ff6e&quot;&gt;3.1&lt;/font&gt;&lt;/b&gt;" style="text;html=1;align=center;verticalAlign=middle;resizable=0;points=[];autosize=1;strokeColor=none;fillColor=none;" parent="1" vertex="1">
          <mxGeometry x="240" y="25" width="40" height="30" as="geometry" />
        </mxCell>
        <mxCell id="mlQpVhgk6LICcNn3Okiw-4" value="&lt;b&gt;&lt;font color=&quot;#ff8000&quot;&gt;3.5&lt;/font&gt;&lt;/b&gt;" style="text;html=1;align=center;verticalAlign=middle;resizable=0;points=[];autosize=1;strokeColor=none;fillColor=none;" parent="1" vertex="1">
          <mxGeometry x="69" y="185" width="40" height="30" as="geometry" />
        </mxCell>
        <mxCell id="mlQpVhgk6LICcNn3Okiw-7" value="&lt;b&gt;&lt;font color=&quot;#3333ff&quot;&gt;3.2&lt;/font&gt;&lt;/b&gt;" style="text;html=1;align=center;verticalAlign=middle;resizable=0;points=[];autosize=1;strokeColor=none;fillColor=none;" parent="1" vertex="1">
          <mxGeometry x="240" y="450" width="40" height="30" as="geometry" />
        </mxCell>
        <mxCell id="mlQpVhgk6LICcNn3Okiw-10" value="&lt;b&gt;&lt;font color=&quot;#ff8000&quot;&gt;3.5&lt;/font&gt;&lt;/b&gt;" style="text;html=1;align=center;verticalAlign=middle;resizable=0;points=[];autosize=1;strokeColor=none;fillColor=none;" parent="1" vertex="1">
          <mxGeometry x="103.5" y="1212.5" width="40" height="30" as="geometry" />
        </mxCell>
        <mxCell id="mlQpVhgk6LICcNn3Okiw-11" value="&lt;b&gt;&lt;font color=&quot;#ff3333&quot;&gt;3.4&lt;/font&gt;&lt;/b&gt;" style="text;html=1;align=center;verticalAlign=middle;resizable=0;points=[];autosize=1;strokeColor=none;fillColor=none;" parent="1" vertex="1">
          <mxGeometry x="240.5" y="977.5" width="40" height="30" as="geometry" />
        </mxCell>
        <mxCell id="wviz0eGP6kA1A7Y7JCNt-1" value="" style="shape=curlyBracket;whiteSpace=wrap;html=1;rounded=1;rotation=90;" vertex="1" parent="1">
          <mxGeometry y="467" width="10" height="420" as="geometry" />
        </mxCell>
        <mxCell id="wviz0eGP6kA1A7Y7JCNt-2" value="Slide 1&lt;br&gt;&lt;br&gt;&lt;br&gt;&lt;br&gt;&lt;br&gt;" style="shape=parallelogram;perimeter=parallelogramPerimeter;whiteSpace=wrap;html=1;fixedSize=1;" vertex="1" parent="1">
          <mxGeometry x="-221" y="860" width="150" height="80" as="geometry" />
        </mxCell>
        <mxCell id="wviz0eGP6kA1A7Y7JCNt-3" value="&lt;span&gt;Slide 2&lt;br&gt;&lt;br&gt;&lt;br&gt;&lt;br&gt;&lt;br&gt;&lt;/span&gt;" style="shape=parallelogram;perimeter=parallelogramPerimeter;whiteSpace=wrap;html=1;fixedSize=1;" vertex="1" parent="1">
          <mxGeometry x="-82" y="860" width="150" height="80" as="geometry" />
        </mxCell>
        <mxCell id="wviz0eGP6kA1A7Y7JCNt-4" value="&lt;span&gt;Slide 3&lt;br&gt;&lt;/span&gt;&lt;br&gt;~&lt;br&gt;&lt;br&gt;&lt;br&gt;" style="shape=parallelogram;perimeter=parallelogramPerimeter;whiteSpace=wrap;html=1;fixedSize=1;" vertex="1" parent="1">
          <mxGeometry x="59" y="860" width="150" height="80" as="geometry" />
        </mxCell>
        <mxCell id="wviz0eGP6kA1A7Y7JCNt-5" value="Frame" style="rounded=0;whiteSpace=wrap;html=1;" vertex="1" parent="1">
          <mxGeometry x="-186.5" y="885" width="61" height="50" as="geometry" />
        </mxCell>
        <mxCell id="wviz0eGP6kA1A7Y7JCNt-6" value="Frame" style="rounded=0;whiteSpace=wrap;html=1;" vertex="1" parent="1">
          <mxGeometry x="-172" y="885" width="61" height="50" as="geometry" />
        </mxCell>
        <mxCell id="wviz0eGP6kA1A7Y7JCNt-7" value="Frame" style="rounded=0;whiteSpace=wrap;html=1;" vertex="1" parent="1">
          <mxGeometry x="-27.5" y="885" width="61" height="50" as="geometry" />
        </mxCell>
        <mxCell id="wviz0eGP6kA1A7Y7JCNt-8" value="&lt;br&gt;" style="rounded=0;whiteSpace=wrap;html=1;" vertex="1" parent="1">
          <mxGeometry x="87.5" y="885" width="61" height="50" as="geometry" />
        </mxCell>
        <mxCell id="wviz0eGP6kA1A7Y7JCNt-9" value="" style="rounded=0;whiteSpace=wrap;html=1;" vertex="1" parent="1">
          <mxGeometry x="103.5" y="885" width="61" height="50" as="geometry" />
        </mxCell>
        <mxCell id="wviz0eGP6kA1A7Y7JCNt-10" value="Frame" style="rounded=0;whiteSpace=wrap;html=1;" vertex="1" parent="1">
          <mxGeometry x="119" y="885" width="61" height="50" as="geometry" />
        </mxCell>
        <mxCell id="wviz0eGP6kA1A7Y7JCNt-11" value="" style="shape=curlyBracket;whiteSpace=wrap;html=1;rounded=1;rotation=90;" vertex="1" parent="1">
          <mxGeometry x="-6" y="637" width="10" height="420" as="geometry" />
        </mxCell>
        <mxCell id="wviz0eGP6kA1A7Y7JCNt-15" style="edgeStyle=orthogonalEdgeStyle;rounded=0;orthogonalLoop=1;jettySize=auto;html=1;exitX=0.1;exitY=0.5;exitDx=0;exitDy=0;exitPerimeter=0;entryX=0.1;entryY=0.5;entryDx=0;entryDy=0;entryPerimeter=0;" edge="1" parent="1" source="wviz0eGP6kA1A7Y7JCNt-12" target="CsPThCFBbrG695YboE_L-77">
          <mxGeometry relative="1" as="geometry" />
        </mxCell>
        <mxCell id="wviz0eGP6kA1A7Y7JCNt-12" value="" style="shape=curlyBracket;whiteSpace=wrap;html=1;rounded=1;rotation=-90;" vertex="1" parent="1">
          <mxGeometry x="-7" y="739.5" width="10" height="427" as="geometry" />
        </mxCell>
        <mxCell id="wviz0eGP6kA1A7Y7JCNt-13" value="" style="shape=curlyBracket;whiteSpace=wrap;html=1;rounded=1;rotation=90;" vertex="1" parent="1">
          <mxGeometry x="-5" y="637" width="10" height="420" as="geometry" />
        </mxCell>
        <mxCell id="wviz0eGP6kA1A7Y7JCNt-16" value="Mejora calidad imagen" style="text;html=1;align=center;verticalAlign=middle;resizable=0;points=[];autosize=1;strokeColor=none;fillColor=none;" vertex="1" parent="1">
          <mxGeometry x="4.5" y="810" width="140" height="30" as="geometry" />
        </mxCell>
        <mxCell id="wviz0eGP6kA1A7Y7JCNt-17" value="" style="rounded=1;whiteSpace=wrap;html=1;strokeColor=#000000;fillColor=none;" vertex="1" parent="1">
          <mxGeometry x="-292.5" y="796.5" width="594" height="163.5" as="geometry" />
        </mxCell>
        <mxCell id="wviz0eGP6kA1A7Y7JCNt-18" value="&lt;b&gt;3.3&lt;/b&gt;" style="text;html=1;align=center;verticalAlign=middle;resizable=0;points=[];autosize=1;strokeColor=none;fillColor=none;" vertex="1" parent="1">
          <mxGeometry x="240" y="810" width="40" height="30" as="geometry" />
        </mxCell>
      </root>
    </mxGraphModel>
  </diagram>
</mxfile>
